<svg width="17" height="11" viewBox="0 0 17 11" fill="none" xmlns="http://www.w3.org/2000/svg">
<path d="M0.969105 10.5V0.318182H7.59126V1.86435H2.81357V4.62855H7.24822V6.17472H2.81357V8.95384H7.63104V10.5H0.969105ZM11.1932 6.02557V10.5H9.39347V2.86364H11.1136V4.16122H11.2031C11.3788 3.73366 11.6589 3.39394 12.0433 3.14205C12.4311 2.89015 12.91 2.7642 13.4801 2.7642C14.0071 2.7642 14.4661 2.87689 14.8572 3.10227C15.2517 3.32765 15.5566 3.65412 15.772 4.08168C15.9908 4.50923 16.0985 5.02794 16.0952 5.63778V10.5H14.2955V5.91619C14.2955 5.40578 14.1629 5.00639 13.8977 4.71804C13.6359 4.42969 13.273 4.28551 12.8089 4.28551C12.4941 4.28551 12.214 4.35511 11.9688 4.49432C11.7268 4.63021 11.5362 4.82741 11.397 5.08594C11.2611 5.34446 11.1932 5.65767 11.1932 6.02557Z" fill="#0A0A0A"/>
</svg>
